<mxfile host="app.diagrams.net" agent="Mozilla/5.0 (Windows NT 10.0; Win64; x64; rv:139.0) Gecko/20100101 Firefox/139.0" version="28.2.5">
  <diagram name="Seite-1" id="2HaCtsR9x_MO8mw4eNtU">
    <mxGraphModel dx="2253" dy="803" grid="1" gridSize="10" guides="1" tooltips="1" connect="1" arrows="1" fold="1" page="1" pageScale="1" pageWidth="827" pageHeight="1169" math="0" shadow="0">
      <root>
        <mxCell id="0" />
        <mxCell id="1" parent="0" />
        <mxCell id="0-qELGf4xsN8lTpsIHIk-1" value="GetIPToEdit()" style="rounded=0;whiteSpace=wrap;html=1;" parent="1" vertex="1">
          <mxGeometry x="40" y="40" width="120" height="60" as="geometry" />
        </mxCell>
        <mxCell id="0-qELGf4xsN8lTpsIHIk-2" value="print User Prompt to LCD" style="rounded=0;whiteSpace=wrap;html=1;" parent="1" vertex="1">
          <mxGeometry x="40" y="160" width="120" height="60" as="geometry" />
        </mxCell>
        <mxCell id="0-qELGf4xsN8lTpsIHIk-3" value="Check for exitcondition" style="rhombus;whiteSpace=wrap;html=1;" parent="1" vertex="1">
          <mxGeometry x="55" y="280" width="90" height="100" as="geometry" />
        </mxCell>
        <mxCell id="0-qELGf4xsN8lTpsIHIk-4" value="" style="endArrow=classic;html=1;rounded=0;exitX=0.5;exitY=1;exitDx=0;exitDy=0;entryX=0.5;entryY=0;entryDx=0;entryDy=0;" parent="1" source="0-qELGf4xsN8lTpsIHIk-2" target="0-qELGf4xsN8lTpsIHIk-3" edge="1">
          <mxGeometry width="50" height="50" relative="1" as="geometry">
            <mxPoint x="-40" y="420" as="sourcePoint" />
            <mxPoint x="10" y="370" as="targetPoint" />
          </mxGeometry>
        </mxCell>
        <mxCell id="0-qELGf4xsN8lTpsIHIk-5" value="" style="endArrow=classic;html=1;rounded=0;exitX=0.5;exitY=1;exitDx=0;exitDy=0;entryX=0.5;entryY=0;entryDx=0;entryDy=0;" parent="1" source="0-qELGf4xsN8lTpsIHIk-1" target="0-qELGf4xsN8lTpsIHIk-2" edge="1">
          <mxGeometry width="50" height="50" relative="1" as="geometry">
            <mxPoint x="-40" y="420" as="sourcePoint" />
            <mxPoint x="10" y="370" as="targetPoint" />
          </mxGeometry>
        </mxCell>
        <mxCell id="0-qELGf4xsN8lTpsIHIk-6" value="Wait for Keypad input" style="rounded=0;whiteSpace=wrap;html=1;" parent="1" vertex="1">
          <mxGeometry x="40" y="520" width="120" height="60" as="geometry" />
        </mxCell>
        <mxCell id="0-qELGf4xsN8lTpsIHIk-9" value="" style="endArrow=classic;html=1;rounded=0;exitX=1;exitY=0.5;exitDx=0;exitDy=0;entryX=0;entryY=0.5;entryDx=0;entryDy=0;" parent="1" source="0-qELGf4xsN8lTpsIHIk-6" target="0-qELGf4xsN8lTpsIHIk-14" edge="1">
          <mxGeometry width="50" height="50" relative="1" as="geometry">
            <mxPoint x="220" y="620" as="sourcePoint" />
            <mxPoint x="220" y="550" as="targetPoint" />
          </mxGeometry>
        </mxCell>
        <mxCell id="0-qELGf4xsN8lTpsIHIk-10" value="" style="endArrow=classic;html=1;rounded=0;exitX=0.5;exitY=1;exitDx=0;exitDy=0;entryX=0.5;entryY=0;entryDx=0;entryDy=0;" parent="1" source="0-qELGf4xsN8lTpsIHIk-3" target="0-qELGf4xsN8lTpsIHIk-6" edge="1">
          <mxGeometry width="50" height="50" relative="1" as="geometry">
            <mxPoint x="220" y="540" as="sourcePoint" />
            <mxPoint x="270" y="490" as="targetPoint" />
          </mxGeometry>
        </mxCell>
        <mxCell id="0-qELGf4xsN8lTpsIHIk-11" value="" style="endArrow=classic;html=1;rounded=0;entryX=0.5;entryY=0;entryDx=0;entryDy=0;exitX=0.5;exitY=0;exitDx=0;exitDy=0;" parent="1" source="0-qELGf4xsN8lTpsIHIk-12" target="0-qELGf4xsN8lTpsIHIk-6" edge="1">
          <mxGeometry width="50" height="50" relative="1" as="geometry">
            <mxPoint x="260" y="420" as="sourcePoint" />
            <mxPoint x="100" y="400" as="targetPoint" />
            <Array as="points">
              <mxPoint x="260" y="400" />
              <mxPoint x="100" y="400" />
            </Array>
          </mxGeometry>
        </mxCell>
        <mxCell id="0-qELGf4xsN8lTpsIHIk-12" value="Print Error on LCD" style="rounded=0;whiteSpace=wrap;html=1;" parent="1" vertex="1">
          <mxGeometry x="200" y="420" width="120" height="60" as="geometry" />
        </mxCell>
        <mxCell id="0-qELGf4xsN8lTpsIHIk-13" value="" style="endArrow=classic;html=1;rounded=0;exitX=0;exitY=0;exitDx=0;exitDy=0;entryX=0.5;entryY=1;entryDx=0;entryDy=0;" parent="1" source="0-qELGf4xsN8lTpsIHIk-14" target="0-qELGf4xsN8lTpsIHIk-12" edge="1">
          <mxGeometry width="50" height="50" relative="1" as="geometry">
            <mxPoint x="260" y="510" as="sourcePoint" />
            <mxPoint x="430" y="490" as="targetPoint" />
            <Array as="points">
              <mxPoint x="350" y="500" />
              <mxPoint x="260" y="500" />
            </Array>
          </mxGeometry>
        </mxCell>
        <mxCell id="0-qELGf4xsN8lTpsIHIk-14" value="1,2,3 or 4?" style="rhombus;whiteSpace=wrap;html=1;" parent="1" vertex="1">
          <mxGeometry x="360" y="510" width="80" height="80" as="geometry" />
        </mxCell>
        <mxCell id="0-qELGf4xsN8lTpsIHIk-16" value="AllLEDsLow()" style="rounded=0;whiteSpace=wrap;html=1;" parent="1" vertex="1">
          <mxGeometry x="520" y="450" width="120" height="60" as="geometry" />
        </mxCell>
        <mxCell id="0-qELGf4xsN8lTpsIHIk-17" value="AllLEDsLow()" style="rounded=0;whiteSpace=wrap;html=1;" parent="1" vertex="1">
          <mxGeometry x="520" y="590" width="120" height="60" as="geometry" />
        </mxCell>
        <mxCell id="0-qELGf4xsN8lTpsIHIk-18" value="AllLEDsLow()" style="rounded=0;whiteSpace=wrap;html=1;" parent="1" vertex="1">
          <mxGeometry x="520" y="730" width="120" height="60" as="geometry" />
        </mxCell>
        <mxCell id="0-qELGf4xsN8lTpsIHIk-19" value="AllLEDsLow()" style="rounded=0;whiteSpace=wrap;html=1;" parent="1" vertex="1">
          <mxGeometry x="520" y="310" width="120" height="60" as="geometry" />
        </mxCell>
        <mxCell id="0-qELGf4xsN8lTpsIHIk-20" value="" style="endArrow=classic;html=1;rounded=0;exitX=1;exitY=0;exitDx=0;exitDy=0;entryX=0;entryY=0.5;entryDx=0;entryDy=0;" parent="1" source="0-qELGf4xsN8lTpsIHIk-14" target="0-qELGf4xsN8lTpsIHIk-16" edge="1">
          <mxGeometry width="50" height="50" relative="1" as="geometry">
            <mxPoint x="490" y="540" as="sourcePoint" />
            <mxPoint x="540" y="490" as="targetPoint" />
            <Array as="points">
              <mxPoint x="470" y="480" />
            </Array>
          </mxGeometry>
        </mxCell>
        <mxCell id="0-qELGf4xsN8lTpsIHIk-21" value="" style="endArrow=classic;html=1;rounded=0;exitX=1;exitY=1;exitDx=0;exitDy=0;entryX=0;entryY=0.5;entryDx=0;entryDy=0;" parent="1" source="0-qELGf4xsN8lTpsIHIk-14" target="0-qELGf4xsN8lTpsIHIk-17" edge="1">
          <mxGeometry width="50" height="50" relative="1" as="geometry">
            <mxPoint x="490" y="540" as="sourcePoint" />
            <mxPoint x="540" y="490" as="targetPoint" />
            <Array as="points">
              <mxPoint x="470" y="620" />
            </Array>
          </mxGeometry>
        </mxCell>
        <mxCell id="0-qELGf4xsN8lTpsIHIk-22" value="" style="endArrow=classic;html=1;rounded=0;exitX=0.5;exitY=0;exitDx=0;exitDy=0;entryX=0;entryY=0.5;entryDx=0;entryDy=0;" parent="1" source="0-qELGf4xsN8lTpsIHIk-14" target="0-qELGf4xsN8lTpsIHIk-19" edge="1">
          <mxGeometry width="50" height="50" relative="1" as="geometry">
            <mxPoint x="490" y="540" as="sourcePoint" />
            <mxPoint x="540" y="490" as="targetPoint" />
            <Array as="points">
              <mxPoint x="400" y="340" />
            </Array>
          </mxGeometry>
        </mxCell>
        <mxCell id="0-qELGf4xsN8lTpsIHIk-23" value="" style="endArrow=classic;html=1;rounded=0;exitX=0.5;exitY=1;exitDx=0;exitDy=0;entryX=0;entryY=0.5;entryDx=0;entryDy=0;" parent="1" source="0-qELGf4xsN8lTpsIHIk-14" target="0-qELGf4xsN8lTpsIHIk-18" edge="1">
          <mxGeometry width="50" height="50" relative="1" as="geometry">
            <mxPoint x="490" y="540" as="sourcePoint" />
            <mxPoint x="540" y="490" as="targetPoint" />
            <Array as="points">
              <mxPoint x="400" y="760" />
            </Array>
          </mxGeometry>
        </mxCell>
        <mxCell id="0-qELGf4xsN8lTpsIHIk-24" value="1" style="text;html=1;align=center;verticalAlign=middle;whiteSpace=wrap;rounded=0;" parent="1" vertex="1">
          <mxGeometry x="460" y="370" width="60" height="30" as="geometry" />
        </mxCell>
        <mxCell id="0-qELGf4xsN8lTpsIHIk-25" value="2" style="text;html=1;align=center;verticalAlign=middle;whiteSpace=wrap;rounded=0;" parent="1" vertex="1">
          <mxGeometry x="460" y="510" width="60" height="30" as="geometry" />
        </mxCell>
        <mxCell id="0-qELGf4xsN8lTpsIHIk-26" value="3" style="text;html=1;align=center;verticalAlign=middle;whiteSpace=wrap;rounded=0;" parent="1" vertex="1">
          <mxGeometry x="460" y="650" width="60" height="30" as="geometry" />
        </mxCell>
        <mxCell id="0-qELGf4xsN8lTpsIHIk-27" value="4" style="text;html=1;align=center;verticalAlign=middle;whiteSpace=wrap;rounded=0;" parent="1" vertex="1">
          <mxGeometry x="460" y="790" width="60" height="30" as="geometry" />
        </mxCell>
        <mxCell id="0-qELGf4xsN8lTpsIHIk-28" value="is not" style="text;html=1;align=center;verticalAlign=middle;whiteSpace=wrap;rounded=0;" parent="1" vertex="1">
          <mxGeometry x="260" y="510" width="60" height="30" as="geometry" />
        </mxCell>
        <mxCell id="0-qELGf4xsN8lTpsIHIk-30" value="&lt;div&gt;Set Red LED 4 to HIGH&lt;/div&gt;&lt;div&gt;Set Green LED 4 to HIGH&lt;/div&gt;" style="rounded=0;whiteSpace=wrap;html=1;" parent="1" vertex="1">
          <mxGeometry x="680" y="730" width="120" height="60" as="geometry" />
        </mxCell>
        <mxCell id="0-qELGf4xsN8lTpsIHIk-34" value="&lt;div&gt;Set Red LED 3 to HIGH&lt;/div&gt;&lt;div&gt;Set Green LED 3 to HIGH&lt;/div&gt;" style="rounded=0;whiteSpace=wrap;html=1;" parent="1" vertex="1">
          <mxGeometry x="680" y="590" width="120" height="60" as="geometry" />
        </mxCell>
        <mxCell id="0-qELGf4xsN8lTpsIHIk-35" value="&lt;div&gt;Set Red LED 2 to HIGH&lt;/div&gt;&lt;div&gt;Set Green LED 2 to HIGH&lt;/div&gt;" style="rounded=0;whiteSpace=wrap;html=1;" parent="1" vertex="1">
          <mxGeometry x="680" y="450" width="120" height="60" as="geometry" />
        </mxCell>
        <mxCell id="0-qELGf4xsN8lTpsIHIk-36" value="&lt;div&gt;Set Red LED 1 to HIGH&lt;/div&gt;&lt;div&gt;Set Green LED 1 to HIGH&lt;/div&gt;" style="rounded=0;whiteSpace=wrap;html=1;" parent="1" vertex="1">
          <mxGeometry x="680" y="310" width="120" height="60" as="geometry" />
        </mxCell>
        <mxCell id="0-qELGf4xsN8lTpsIHIk-37" value="Print &quot;IP#1&quot; to LCD" style="rounded=0;whiteSpace=wrap;html=1;" parent="1" vertex="1">
          <mxGeometry x="840" y="310" width="120" height="60" as="geometry" />
        </mxCell>
        <mxCell id="0-qELGf4xsN8lTpsIHIk-38" value="Print &quot;IP#2&quot; to LCD" style="rounded=0;whiteSpace=wrap;html=1;" parent="1" vertex="1">
          <mxGeometry x="840" y="450" width="120" height="60" as="geometry" />
        </mxCell>
        <mxCell id="0-qELGf4xsN8lTpsIHIk-39" value="Print &quot;IP#3&quot; to LCD" style="rounded=0;whiteSpace=wrap;html=1;" parent="1" vertex="1">
          <mxGeometry x="840" y="590" width="120" height="60" as="geometry" />
        </mxCell>
        <mxCell id="0-qELGf4xsN8lTpsIHIk-40" value="Print &quot;IP#4&quot; to LCD" style="rounded=0;whiteSpace=wrap;html=1;" parent="1" vertex="1">
          <mxGeometry x="840" y="730" width="120" height="60" as="geometry" />
        </mxCell>
        <mxCell id="0-qELGf4xsN8lTpsIHIk-41" value="" style="endArrow=classic;html=1;rounded=0;exitX=1;exitY=0.5;exitDx=0;exitDy=0;entryX=0;entryY=0.5;entryDx=0;entryDy=0;" parent="1" source="0-qELGf4xsN8lTpsIHIk-19" target="0-qELGf4xsN8lTpsIHIk-36" edge="1">
          <mxGeometry width="50" height="50" relative="1" as="geometry">
            <mxPoint x="770" y="540" as="sourcePoint" />
            <mxPoint x="820" y="490" as="targetPoint" />
          </mxGeometry>
        </mxCell>
        <mxCell id="0-qELGf4xsN8lTpsIHIk-42" value="" style="endArrow=classic;html=1;rounded=0;exitX=1;exitY=0.5;exitDx=0;exitDy=0;entryX=0;entryY=0.5;entryDx=0;entryDy=0;" parent="1" source="0-qELGf4xsN8lTpsIHIk-36" target="0-qELGf4xsN8lTpsIHIk-37" edge="1">
          <mxGeometry width="50" height="50" relative="1" as="geometry">
            <mxPoint x="770" y="540" as="sourcePoint" />
            <mxPoint x="820" y="490" as="targetPoint" />
          </mxGeometry>
        </mxCell>
        <mxCell id="0-qELGf4xsN8lTpsIHIk-43" value="" style="endArrow=classic;html=1;rounded=0;exitX=1;exitY=0.5;exitDx=0;exitDy=0;entryX=0;entryY=0.5;entryDx=0;entryDy=0;" parent="1" source="0-qELGf4xsN8lTpsIHIk-16" target="0-qELGf4xsN8lTpsIHIk-35" edge="1">
          <mxGeometry width="50" height="50" relative="1" as="geometry">
            <mxPoint x="770" y="540" as="sourcePoint" />
            <mxPoint x="820" y="490" as="targetPoint" />
          </mxGeometry>
        </mxCell>
        <mxCell id="0-qELGf4xsN8lTpsIHIk-44" value="" style="endArrow=classic;html=1;rounded=0;exitX=1;exitY=0.5;exitDx=0;exitDy=0;entryX=0;entryY=0.5;entryDx=0;entryDy=0;" parent="1" source="0-qELGf4xsN8lTpsIHIk-17" target="0-qELGf4xsN8lTpsIHIk-34" edge="1">
          <mxGeometry width="50" height="50" relative="1" as="geometry">
            <mxPoint x="770" y="540" as="sourcePoint" />
            <mxPoint x="820" y="490" as="targetPoint" />
          </mxGeometry>
        </mxCell>
        <mxCell id="0-qELGf4xsN8lTpsIHIk-45" value="" style="endArrow=classic;html=1;rounded=0;exitX=1;exitY=0.5;exitDx=0;exitDy=0;entryX=0;entryY=0.5;entryDx=0;entryDy=0;" parent="1" source="0-qELGf4xsN8lTpsIHIk-18" target="0-qELGf4xsN8lTpsIHIk-30" edge="1">
          <mxGeometry width="50" height="50" relative="1" as="geometry">
            <mxPoint x="770" y="540" as="sourcePoint" />
            <mxPoint x="820" y="490" as="targetPoint" />
          </mxGeometry>
        </mxCell>
        <mxCell id="0-qELGf4xsN8lTpsIHIk-46" value="" style="endArrow=classic;html=1;rounded=0;exitX=1;exitY=0.5;exitDx=0;exitDy=0;entryX=0;entryY=0.5;entryDx=0;entryDy=0;" parent="1" source="0-qELGf4xsN8lTpsIHIk-35" target="0-qELGf4xsN8lTpsIHIk-38" edge="1">
          <mxGeometry width="50" height="50" relative="1" as="geometry">
            <mxPoint x="770" y="540" as="sourcePoint" />
            <mxPoint x="830" y="490" as="targetPoint" />
          </mxGeometry>
        </mxCell>
        <mxCell id="0-qELGf4xsN8lTpsIHIk-47" value="" style="endArrow=classic;html=1;rounded=0;exitX=1;exitY=0.5;exitDx=0;exitDy=0;entryX=0;entryY=0.5;entryDx=0;entryDy=0;" parent="1" source="0-qELGf4xsN8lTpsIHIk-34" target="0-qELGf4xsN8lTpsIHIk-39" edge="1">
          <mxGeometry width="50" height="50" relative="1" as="geometry">
            <mxPoint x="770" y="540" as="sourcePoint" />
            <mxPoint x="820" y="490" as="targetPoint" />
          </mxGeometry>
        </mxCell>
        <mxCell id="0-qELGf4xsN8lTpsIHIk-48" value="" style="endArrow=classic;html=1;rounded=0;exitX=1;exitY=0.5;exitDx=0;exitDy=0;entryX=0;entryY=0.5;entryDx=0;entryDy=0;" parent="1" source="0-qELGf4xsN8lTpsIHIk-30" target="0-qELGf4xsN8lTpsIHIk-40" edge="1">
          <mxGeometry width="50" height="50" relative="1" as="geometry">
            <mxPoint x="770" y="540" as="sourcePoint" />
            <mxPoint x="820" y="490" as="targetPoint" />
          </mxGeometry>
        </mxCell>
        <mxCell id="0-qELGf4xsN8lTpsIHIk-49" value="Return 1" style="rounded=0;whiteSpace=wrap;html=1;" parent="1" vertex="1">
          <mxGeometry x="1000" y="310" width="120" height="60" as="geometry" />
        </mxCell>
        <mxCell id="0-qELGf4xsN8lTpsIHIk-50" value="&lt;div&gt;Return 2&lt;/div&gt;" style="rounded=0;whiteSpace=wrap;html=1;" parent="1" vertex="1">
          <mxGeometry x="1000" y="450" width="120" height="60" as="geometry" />
        </mxCell>
        <mxCell id="0-qELGf4xsN8lTpsIHIk-51" value="Return 3" style="rounded=0;whiteSpace=wrap;html=1;" parent="1" vertex="1">
          <mxGeometry x="1000" y="590" width="120" height="60" as="geometry" />
        </mxCell>
        <mxCell id="0-qELGf4xsN8lTpsIHIk-52" value="Return 4" style="rounded=0;whiteSpace=wrap;html=1;" parent="1" vertex="1">
          <mxGeometry x="1000" y="730" width="120" height="60" as="geometry" />
        </mxCell>
        <mxCell id="0-qELGf4xsN8lTpsIHIk-53" value="ExitCondition = 1" style="rounded=0;whiteSpace=wrap;html=1;" parent="1" vertex="1">
          <mxGeometry x="1160" y="310" width="120" height="60" as="geometry" />
        </mxCell>
        <mxCell id="0-qELGf4xsN8lTpsIHIk-54" value="ExitCondition = 1" style="rounded=0;whiteSpace=wrap;html=1;" parent="1" vertex="1">
          <mxGeometry x="1160" y="450" width="120" height="60" as="geometry" />
        </mxCell>
        <mxCell id="0-qELGf4xsN8lTpsIHIk-55" value="ExitCondition = 1" style="rounded=0;whiteSpace=wrap;html=1;" parent="1" vertex="1">
          <mxGeometry x="1160" y="590" width="120" height="60" as="geometry" />
        </mxCell>
        <mxCell id="0-qELGf4xsN8lTpsIHIk-56" value="ExitCondition = 1" style="rounded=0;whiteSpace=wrap;html=1;" parent="1" vertex="1">
          <mxGeometry x="1160" y="730" width="120" height="60" as="geometry" />
        </mxCell>
        <mxCell id="0-qELGf4xsN8lTpsIHIk-57" value="" style="endArrow=classic;html=1;rounded=0;exitX=1;exitY=0.5;exitDx=0;exitDy=0;entryX=0;entryY=0.5;entryDx=0;entryDy=0;" parent="1" source="0-qELGf4xsN8lTpsIHIk-37" target="0-qELGf4xsN8lTpsIHIk-49" edge="1">
          <mxGeometry width="50" height="50" relative="1" as="geometry">
            <mxPoint x="1070" y="540" as="sourcePoint" />
            <mxPoint x="1120" y="490" as="targetPoint" />
          </mxGeometry>
        </mxCell>
        <mxCell id="0-qELGf4xsN8lTpsIHIk-58" value="" style="endArrow=classic;html=1;rounded=0;exitX=1;exitY=0.5;exitDx=0;exitDy=0;entryX=0;entryY=0.5;entryDx=0;entryDy=0;" parent="1" source="0-qELGf4xsN8lTpsIHIk-38" target="0-qELGf4xsN8lTpsIHIk-50" edge="1">
          <mxGeometry width="50" height="50" relative="1" as="geometry">
            <mxPoint x="990" y="430" as="sourcePoint" />
            <mxPoint x="1030" y="430" as="targetPoint" />
          </mxGeometry>
        </mxCell>
        <mxCell id="0-qELGf4xsN8lTpsIHIk-59" value="" style="endArrow=classic;html=1;rounded=0;exitX=1;exitY=0.5;exitDx=0;exitDy=0;entryX=0;entryY=0.5;entryDx=0;entryDy=0;" parent="1" source="0-qELGf4xsN8lTpsIHIk-39" target="0-qELGf4xsN8lTpsIHIk-51" edge="1">
          <mxGeometry width="50" height="50" relative="1" as="geometry">
            <mxPoint x="970" y="610" as="sourcePoint" />
            <mxPoint x="1010" y="610" as="targetPoint" />
          </mxGeometry>
        </mxCell>
        <mxCell id="0-qELGf4xsN8lTpsIHIk-60" value="" style="endArrow=classic;html=1;rounded=0;exitX=1;exitY=0.5;exitDx=0;exitDy=0;entryX=0;entryY=0.5;entryDx=0;entryDy=0;" parent="1" source="0-qELGf4xsN8lTpsIHIk-40" target="0-qELGf4xsN8lTpsIHIk-52" edge="1">
          <mxGeometry width="50" height="50" relative="1" as="geometry">
            <mxPoint x="970" y="750" as="sourcePoint" />
            <mxPoint x="1010" y="750" as="targetPoint" />
          </mxGeometry>
        </mxCell>
        <mxCell id="0-qELGf4xsN8lTpsIHIk-61" value="" style="endArrow=classic;html=1;rounded=0;exitX=1;exitY=0.5;exitDx=0;exitDy=0;entryX=0;entryY=0.5;entryDx=0;entryDy=0;" parent="1" source="0-qELGf4xsN8lTpsIHIk-49" target="0-qELGf4xsN8lTpsIHIk-53" edge="1">
          <mxGeometry width="50" height="50" relative="1" as="geometry">
            <mxPoint x="1130" y="410" as="sourcePoint" />
            <mxPoint x="1170" y="410" as="targetPoint" />
          </mxGeometry>
        </mxCell>
        <mxCell id="0-qELGf4xsN8lTpsIHIk-62" value="" style="endArrow=classic;html=1;rounded=0;exitX=1;exitY=0.5;exitDx=0;exitDy=0;entryX=0;entryY=0.5;entryDx=0;entryDy=0;" parent="1" source="0-qELGf4xsN8lTpsIHIk-50" target="0-qELGf4xsN8lTpsIHIk-54" edge="1">
          <mxGeometry width="50" height="50" relative="1" as="geometry">
            <mxPoint x="1150" y="400" as="sourcePoint" />
            <mxPoint x="1190" y="400" as="targetPoint" />
          </mxGeometry>
        </mxCell>
        <mxCell id="0-qELGf4xsN8lTpsIHIk-63" value="" style="endArrow=classic;html=1;rounded=0;exitX=1;exitY=0.5;exitDx=0;exitDy=0;entryX=0;entryY=0.5;entryDx=0;entryDy=0;" parent="1" source="0-qELGf4xsN8lTpsIHIk-51" target="0-qELGf4xsN8lTpsIHIk-55" edge="1">
          <mxGeometry width="50" height="50" relative="1" as="geometry">
            <mxPoint x="1140" y="540" as="sourcePoint" />
            <mxPoint x="1180" y="540" as="targetPoint" />
          </mxGeometry>
        </mxCell>
        <mxCell id="0-qELGf4xsN8lTpsIHIk-64" value="" style="endArrow=classic;html=1;rounded=0;exitX=1;exitY=0.5;exitDx=0;exitDy=0;entryX=0;entryY=0.5;entryDx=0;entryDy=0;" parent="1" source="0-qELGf4xsN8lTpsIHIk-52" target="0-qELGf4xsN8lTpsIHIk-56" edge="1">
          <mxGeometry width="50" height="50" relative="1" as="geometry">
            <mxPoint x="1140" y="690" as="sourcePoint" />
            <mxPoint x="1180" y="690" as="targetPoint" />
          </mxGeometry>
        </mxCell>
        <mxCell id="0-qELGf4xsN8lTpsIHIk-65" value="" style="endArrow=classic;html=1;rounded=0;entryX=1;entryY=0.5;entryDx=0;entryDy=0;" parent="1" target="0-qELGf4xsN8lTpsIHIk-3" edge="1">
          <mxGeometry width="50" height="50" relative="1" as="geometry">
            <mxPoint x="1440" y="550" as="sourcePoint" />
            <mxPoint x="410" y="250" as="targetPoint" />
            <Array as="points">
              <mxPoint x="1500" y="550" />
              <mxPoint x="1500" y="200" />
              <mxPoint x="270" y="200" />
              <mxPoint x="270" y="330" />
            </Array>
          </mxGeometry>
        </mxCell>
        <mxCell id="0-qELGf4xsN8lTpsIHIk-66" value="Exit Function" style="rounded=0;whiteSpace=wrap;html=1;" parent="1" vertex="1">
          <mxGeometry x="-120" y="300" width="120" height="60" as="geometry" />
        </mxCell>
        <mxCell id="0-qELGf4xsN8lTpsIHIk-67" value="" style="endArrow=classic;html=1;rounded=0;entryX=1;entryY=0.5;entryDx=0;entryDy=0;exitX=0;exitY=0.5;exitDx=0;exitDy=0;" parent="1" source="0-qELGf4xsN8lTpsIHIk-3" target="0-qELGf4xsN8lTpsIHIk-66" edge="1">
          <mxGeometry width="50" height="50" relative="1" as="geometry">
            <mxPoint x="50" y="330" as="sourcePoint" />
            <mxPoint x="90" y="310" as="targetPoint" />
          </mxGeometry>
        </mxCell>
        <mxCell id="NLDm3q8FwtnkKNUlxEW0-9" value="" style="endArrow=none;html=1;rounded=0;fontSize=12;startSize=8;endSize=8;curved=0;exitX=1;exitY=0.5;exitDx=0;exitDy=0;" edge="1" parent="1" source="0-qELGf4xsN8lTpsIHIk-53">
          <mxGeometry width="50" height="50" relative="1" as="geometry">
            <mxPoint x="1050" y="530" as="sourcePoint" />
            <mxPoint x="1440" y="550" as="targetPoint" />
            <Array as="points">
              <mxPoint x="1320" y="340" />
            </Array>
          </mxGeometry>
        </mxCell>
        <mxCell id="NLDm3q8FwtnkKNUlxEW0-10" value="" style="endArrow=none;html=1;rounded=0;fontSize=12;startSize=8;endSize=8;curved=0;exitX=1;exitY=0.5;exitDx=0;exitDy=0;" edge="1" parent="1" source="0-qELGf4xsN8lTpsIHIk-56">
          <mxGeometry width="50" height="50" relative="1" as="geometry">
            <mxPoint x="1300" y="810" as="sourcePoint" />
            <mxPoint x="1440" y="550" as="targetPoint" />
            <Array as="points">
              <mxPoint x="1320" y="760" />
            </Array>
          </mxGeometry>
        </mxCell>
        <mxCell id="NLDm3q8FwtnkKNUlxEW0-11" value="" style="endArrow=none;html=1;rounded=0;fontSize=12;startSize=8;endSize=8;curved=0;exitX=1;exitY=0.5;exitDx=0;exitDy=0;" edge="1" parent="1" source="0-qELGf4xsN8lTpsIHIk-55">
          <mxGeometry width="50" height="50" relative="1" as="geometry">
            <mxPoint x="1050" y="530" as="sourcePoint" />
            <mxPoint x="1440" y="550" as="targetPoint" />
            <Array as="points">
              <mxPoint x="1320" y="620" />
            </Array>
          </mxGeometry>
        </mxCell>
        <mxCell id="NLDm3q8FwtnkKNUlxEW0-12" value="" style="endArrow=none;html=1;rounded=0;fontSize=12;startSize=8;endSize=8;curved=0;exitX=1;exitY=0.5;exitDx=0;exitDy=0;" edge="1" parent="1" source="0-qELGf4xsN8lTpsIHIk-54">
          <mxGeometry width="50" height="50" relative="1" as="geometry">
            <mxPoint x="1050" y="530" as="sourcePoint" />
            <mxPoint x="1440" y="550" as="targetPoint" />
            <Array as="points">
              <mxPoint x="1320" y="480" />
            </Array>
          </mxGeometry>
        </mxCell>
      </root>
    </mxGraphModel>
  </diagram>
</mxfile>
